# xmcd
# Track frame offsets:
# 150
# 16965
# 30362
# 45305
# 62281
# 75944
# 92484
# 105529
# 123179
# 136901
# 149758
# 165960
#
# Disc length: 2377 seconds
# Revision: 0
# Processed by: cddbd v1.5.1PL2 Copyright (c) Steve Scherf et al.
# Submitted via: VisiTrax 2.9.10.228 - For more info visit www.synapsa.com
#
DISCID=7f09470c
DTITLE=Perrett.Dean. - All Set and Saddled.
DYEAR=2003
DGENRE=Country
TTITLE0=Australian.
TTITLE1=Tribute To A Horseman.
TTITLE2=Cattle Coach King.
TTITLE3=Barry Thornton - Our Tribute.
TTITLE4=Jewels In Kidman's Crown.The.
TTITLE5=What Is A Man To Do ?
TTITLE6=Brunette Downs.
TTITLE7=Sprig Of Wattle.The.
TTITLE8=Hold On To Jesus.
TTITLE9=All Set and Saddled.
TTITLE10=Saddle That Wieneke Made.The.
TTITLE11=Somewhere West Of Isa.
EXTD=
EXTT0=
EXTT1=
EXTT2=
EXTT3=
EXTT4=
EXTT5=
EXTT6=
EXTT7=
EXTT8=
EXTT9=
EXTT10=
EXTT11=
PLAYORDER=
